<?xml version="1.0" encoding="utf-8"?>
<!-- Generator: Adobe Illustrator 26.5.0, SVG Export Plug-In . SVG Version: 6.00 Build 0)  -->
<svg version="1.1" id="Layer_1" xmlns="http://www.w3.org/2000/svg" xmlns:xlink="http://www.w3.org/1999/xlink" x="0px" y="0px"
	 viewBox="0 0 655.7 584.7" style="enable-background:new 0 0 655.7 584.7;" xml:space="preserve">
<style type="text/css">
	.st0{fill:#231F20;}
</style>
<g>
	<path class="st0" d="M258.2,69.8c-141.4,0-256,100.3-256,224c0,70.7,37.5,133.8,96,174.9c0,0.4,0,0.7,0,1.1v64
		c0,26.5,21.5,48,48,48h48v-48c0-8.8,7.2-16,16-16s16,7.2,16,16v48h64v-48c0-8.8,7.2-16,16-16s16,7.2,16,16v48h48
		c26.5,0,48-21.5,48-48v-64c0-0.4,0-0.7,0-1.1c58.5-41.1,96-104.1,96-174.9C514.2,170.1,399.6,69.8,258.2,69.8z M162.2,389.8
		c-35.3,0-64-28.7-64-64s28.7-64,64-64s64,28.7,64,64S197.5,389.8,162.2,389.8z M491.9,320.7c0,5.5-2.8,9.9-6.9,10.5
		c-79.1,12.6-90.3,30.1-100.7,145.5c-0.7,5.7-3.5,9.7-7.3,9.7s-6.6-4-7.1-9.7C359,361.5,348,346.2,269.2,331.2
		c-4.2-0.6-7-5.1-7-10.5c0-5.5,2.8-9.7,7-10.5c78.9-12.6,90.3-30.1,100.7-145.5c0.6-5.7,3.4-9.5,7.1-9.5c3.8,0,6.6,3.8,7.3,9.5
		C394.7,280.1,406,297.5,485,310.2C489.1,311,491.9,315.2,491.9,320.7z"/>
	<path class="st0" d="M553.9,68c33.1,8.5,32.8,9.5,38.7,52.6c0.6,2.8,1.7,4.6,4,4.6c2.3,0,3.4-1.8,4-4.6c5.9-43,5.5-43.5,38.7-52.6
		c2.1-0.5,3.6-2.3,3.6-5.4c0-3.1-1.5-4.9-3.6-5.4c-33.1-9-32-10-38.7-52.6c-0.6-2.8-1.7-4.6-4-4.6c-2.3,0-3.4,1.8-4,4.6
		c-6.7,42.5-5.7,43.5-38.7,52.6c-2.3,0.5-3.6,2.3-3.6,5.4C550.2,65.7,551.6,67.5,553.9,68z"/>
	<path class="st0" d="M628.4,182.6c0-4.5-2.2-7.6-5.2-8.6c-45.7-12.9-48-12.6-53.5-80.2c-0.3-4.8-2.5-8.1-5.5-8.1
		c-3.2,0-5.3,3.3-5.7,7.8c-5.8,68.6-7.5,70.9-53.5,80.5c-3,0.8-5.2,4-5.2,8.6c0,4.8,2.2,7.8,5.2,8.6c46,13.4,47.5,13.4,53.5,80.7
		c0.3,4.5,2.5,7.6,5.7,7.6c3,0,5.2-3,5.5-8.1c5.5-67.4,7.5-69.1,52.9-80.2C626.2,190.4,628.4,187.6,628.4,182.6z"/>
</g>
</svg>
