<?xml version="1.0" encoding="utf-8"?>
<!-- Generator: Adobe Illustrator 26.5.0, SVG Export Plug-In . SVG Version: 6.00 Build 0)  -->
<svg version="1.1" id="Layer_1" xmlns="http://www.w3.org/2000/svg" xmlns:xlink="http://www.w3.org/1999/xlink" x="0px" y="0px"
	 viewBox="0 0 512 512" style="enable-background:new 0 0 512 512;" xml:space="preserve">
<style type="text/css">
	.st0{fill:#231F20;stroke:#000000;stroke-width:3;stroke-miterlimit:10;}
</style>
<path class="st0" d="M256,0C114.6,0,0,100.3,0,224c0,70.7,37.5,133.8,96,174.9c0,0.4,0,0.7,0,1.1v64c0,26.5,21.5,36,48,36h43
	c2.8,0,5-2.2,5-5v-30.6c0-8.2,5.9-15.3,14-16.3c9.7-1.2,18,6.4,18,15.9v25c0,2.8,2.2,5,5,5h54c2.8,0,5-2.2,5-5v-24.6
	c0-8.2,5.9-15.3,14-16.3c9.7-1.2,18,6.4,18,15.9v31c0,2.8,2.2,5,5,5h43c26.5,0,48-9.5,48-36v-64c0-0.4,0-0.7,0-1.1
	c58.5-41.1,96-104.1,96-174.9C512,100.3,397.4,0,256,0z M236.6,272.5c-4.6,0-8.4-3.5-8.9-8.1c-4-38-36.1-67.5-75.2-67.5
	c-39,0-71.1,29.6-75.2,67.5c-0.5,4.6-4.3,8.1-8.9,8.1c-5.4,0-9.5-4.7-8.9-10c5-47,44.7-83.5,93-83.5s88,36.6,93,83.5
	C246.1,267.8,241.9,272.5,236.6,272.5z M442.3,272.5c-4.6,0-8.4-3.5-8.9-8.1c-4-38-36.1-67.5-75.2-67.5c-39,0-71.1,29.6-75.2,67.5
	c-0.5,4.6-4.3,8.1-8.9,8.1c-5.4,0-9.5-4.7-8.9-10c5-47,44.7-83.5,93-83.5s88,36.6,93,83.5C451.8,267.8,447.6,272.5,442.3,272.5z"/>
</svg>
